<svg width="189" height="31" viewBox="0 0 189 31" fill="none" xmlns="http://www.w3.org/2000/svg">
<path fill-rule="evenodd" clip-rule="evenodd" d="M16.2051 13.1719H19.3911H28.9493V16.3769H19.3911V25.9922H22.5772V22.7872V19.5821H25.7634H28.9493V22.7872H25.7634V25.9922H28.9493V29.1974H16.2051V29.1973V25.9922V16.3769V13.1719Z" fill="#28B058"/>
<path fill-rule="evenodd" clip-rule="evenodd" d="M28.9494 0.351562V3.55661H0.274658V0.351562H28.9494Z" fill="#28B058"/>
<path fill-rule="evenodd" clip-rule="evenodd" d="M28.9494 6.76172V9.96677H16.2051V6.76172H28.9494ZM13.0189 9.96677V29.1972H9.83285V9.96677H6.64679V29.1972H3.46072V9.96677H0.274658V6.76172H3.46072H6.64679H9.83285H13.0189V9.96677Z" fill="#28B058"/>
<path d="M38.5439 11.3469V2.07934H34.1595V0.874654H44.2221V2.07934H39.8378V11.3469H38.5439ZM44.7822 11.3469V0.874654H52.9714V2.07934H46.0762V5.14902H50.2481V6.35371H46.0762V10.1424H53.3962V11.3469H44.7822ZM63.6294 8.00522L64.6724 8.78235C64.1959 9.69224 63.5394 10.3949 62.7088 10.8839C61.8815 11.3729 60.9384 11.619 59.8793 11.619C58.3213 11.619 57.0337 11.1008 56.0165 10.0679C55.0025 9.03482 54.4939 7.72347 54.4939 6.13355C54.4939 4.5403 55.0025 3.22561 56.0197 2.19268C57.0402 1.15959 58.3246 0.641602 59.8761 0.641602C60.8386 0.641602 61.7174 0.852044 62.5092 1.27626C63.3011 1.70048 63.9449 2.30601 64.4406 3.08967L63.3558 3.8668C63.0306 3.24185 62.5575 2.74965 61.9427 2.3966C61.3278 2.04368 60.639 1.86556 59.8793 1.86556C58.7109 1.86556 57.742 2.27036 56.9758 3.07662C56.2097 3.88303 55.8266 4.90293 55.8266 6.13355C55.8266 7.36722 56.2097 8.38726 56.9758 9.19034C57.742 9.99341 58.7109 10.3949 59.8793 10.3949C60.6969 10.3949 61.4212 10.191 62.0554 9.78616C62.6895 9.38136 63.2142 8.78873 63.6294 8.00522ZM66.99 11.3469V0.874654H68.3033V5.01307H74.4452V0.874654H75.7392V11.3469H74.4452V6.21761H68.3033V11.3469H66.99ZM78.8905 11.3469V0.874654H79.5698L86.3265 8.70133V0.874654H87.6204V11.3469H86.9606L80.1846 3.52026V11.3469H78.8905ZM95.2848 10.3949C96.4534 10.3949 97.4223 9.99341 98.1916 9.19034C98.9577 8.38726 99.3408 7.36722 99.3408 6.13355C99.3408 4.89655 98.9577 3.87332 98.1948 3.07025C97.4319 2.26717 96.4597 1.86556 95.2848 1.86556C94.1163 1.86556 93.1474 2.27036 92.3781 3.07662C91.612 3.88303 91.2289 4.90293 91.2289 6.13355C91.2289 7.36722 91.612 8.38726 92.3781 9.19034C93.1474 9.99341 94.1163 10.3949 95.2848 10.3949ZM95.2816 11.619C93.7204 11.619 92.4328 11.1008 91.4188 10.0679C90.4048 9.03482 89.8962 7.72347 89.8962 6.13355C89.8962 4.5403 90.4048 3.22561 91.4253 2.19268C92.4425 1.15959 93.7269 0.641602 95.2816 0.641602C96.8396 0.641602 98.1304 1.15959 99.1572 2.19905C100.181 3.23532 100.693 4.54682 100.693 6.13355C100.693 7.72347 100.181 9.03482 99.1605 10.0679C98.14 11.1008 96.8461 11.619 95.2816 11.619ZM111.274 8.00522L112.317 8.78235C111.84 9.69224 111.184 10.3949 110.353 10.8839C109.526 11.3729 108.583 11.619 107.523 11.619C105.965 11.619 104.678 11.1008 103.661 10.0679C102.647 9.03482 102.138 7.72347 102.138 6.13355C102.138 4.5403 102.647 3.22561 103.664 2.19268C104.684 1.15959 105.969 0.641602 107.52 0.641602C108.483 0.641602 109.362 0.852044 110.153 1.27626C110.945 1.70048 111.589 2.30601 112.085 3.08967L111 3.8668C110.675 3.24185 110.202 2.74965 109.587 2.3966C108.972 2.04368 108.283 1.86556 107.523 1.86556C106.355 1.86556 105.386 2.27036 104.62 3.07662C103.854 3.88303 103.471 4.90293 103.471 6.13355C103.471 7.36722 103.854 8.38726 104.62 9.19034C105.386 9.99341 106.355 10.3949 107.523 10.3949C108.341 10.3949 109.065 10.191 109.7 9.78616C110.334 9.38136 110.858 8.78873 111.274 8.00522ZM119.192 10.3949C120.361 10.3949 121.33 9.99341 122.099 9.19034C122.865 8.38726 123.248 7.36722 123.248 6.13355C123.248 4.89655 122.865 3.87332 122.102 3.07025C121.339 2.26717 120.367 1.86556 119.192 1.86556C118.024 1.86556 117.055 2.27036 116.286 3.07662C115.519 3.88303 115.136 4.90293 115.136 6.13355C115.136 7.36722 115.519 8.38726 116.286 9.19034C117.055 9.99341 118.024 10.3949 119.192 10.3949ZM119.189 11.619C117.628 11.619 116.34 11.1008 115.326 10.0679C114.312 9.03482 113.804 7.72347 113.804 6.13355C113.804 4.5403 114.312 3.22561 115.333 2.19268C116.35 1.15959 117.634 0.641602 119.189 0.641602C120.747 0.641602 122.038 1.15959 123.065 2.19905C124.088 3.23532 124.6 4.54682 124.6 6.13355C124.6 7.72347 124.088 9.03482 123.068 10.0679C122.047 11.1008 120.754 11.619 119.189 11.619ZM128.112 5.53773H132.709C133.362 5.53773 133.858 5.39193 134.193 5.10047C134.531 4.81234 134.698 4.38493 134.698 3.82143C134.698 3.27417 134.531 2.84357 134.193 2.53907C133.858 2.23152 133.385 2.07934 132.773 2.07934H128.112V5.53773ZM126.818 11.3469V0.874654H132.793C133.81 0.874654 134.605 1.13379 135.184 1.6486C135.761 2.16354 136.05 2.87589 136.05 3.78578C136.05 4.54349 135.825 5.1912 135.374 5.73194C134.92 6.27269 134.325 6.60951 133.584 6.74227L136.185 11.3469H134.756L132.152 6.76169H128.112V11.3469H126.818ZM139.646 5.53773H144.242C144.896 5.53773 145.392 5.39193 145.726 5.10047C146.064 4.81234 146.232 4.38493 146.232 3.82143C146.232 3.27417 146.064 2.84357 145.726 2.53907C145.392 2.23152 144.918 2.07934 144.307 2.07934H139.646V5.53773ZM138.352 11.3469V0.874654H144.326C145.337 0.874654 146.132 1.12727 146.711 1.63251C147.294 2.1376 147.584 2.83053 147.584 3.7081C147.584 4.61799 147.304 5.35628 146.74 5.91659C146.18 6.47994 145.43 6.76169 144.497 6.76169H139.646V11.3469H138.352Z" fill="#28B058" stroke="#28B058" stroke-width="0.0762" stroke-miterlimit="22.9256"/>
<path d="M36.9658 17.0946H35.1113V21.2422H34.5663V16.5884H36.9658V17.0946Z" fill="#28B058"/>
<path d="M40.9578 16.5884L39.5283 19.8363C39.274 20.4124 39.0284 20.8035 38.7928 21.0117C38.5559 21.2189 38.2972 21.3231 38.0185 21.3231C37.7884 21.3231 37.5957 21.2899 37.4404 21.2222V20.6706C37.6254 20.7813 37.8039 20.8367 37.9756 20.8367C38.1506 20.8367 38.3104 20.7691 38.4568 20.634C38.6033 20.4988 38.7608 20.2595 38.9315 19.9184L37.3633 16.5884H37.9789L39.089 19.0743C39.1087 19.1151 39.1484 19.216 39.209 19.3756H39.2145C39.2211 19.3567 39.2652 19.2515 39.3478 19.0609L40.3763 16.5884H40.9578Z" fill="#28B058"/>
<path d="M45.0344 21.2422H44.4861V17.0946H42.0699V21.2422H41.5249V16.5884H45.0344V21.2422Z" fill="#28B058"/>
<path d="M50.4911 20.593H49.9482L48.9835 19.5029L49.9482 18.3862H50.4966L49.5065 19.5029L50.4911 20.593ZM49.2357 20.593H48.7004L47.7358 19.5029L48.7004 18.3862H49.2357L48.2578 19.5029L49.2357 20.593Z" fill="#28B058"/>
<path d="M55.4852 22.4918H54.9841V21.2422H51.3876V16.5884H51.9293V20.7493H54.3234V16.5884H54.8652V20.7493H55.4852V22.4918Z" fill="#28B058"/>
<path d="M58.7427 21.2422H56.2914V16.5884H58.6402V17.0813H56.8331V18.6301H58.5048V19.1196H56.8331V20.7493H58.7427V21.2422Z" fill="#28B058"/>
<path d="M63.1113 21.2422H62.5695V19.1196H60.1754V21.2422H59.6337V16.5884H60.1754V18.6301H62.5695V16.5884H63.1113V21.2422Z" fill="#28B058"/>
<path d="M67.0602 17.0813H65.7244V21.2422H65.1826V17.0813H63.8501V16.5884H67.0602V17.0813Z" fill="#28B058"/>
<path d="M68.3288 19.483V21.2422H67.7871V16.5884H69.0578C69.5523 16.5884 69.9356 16.7091 70.2087 16.9517C70.4807 17.1943 70.6162 17.5355 70.6162 17.9776C70.6162 18.4185 70.4653 18.7796 70.1625 19.0609C69.8606 19.3423 69.4522 19.483 68.939 19.483H68.3288ZM68.3288 17.0813V18.9901H68.8971C69.2704 18.9901 69.5568 18.9037 69.7527 18.7319C69.9498 18.5602 70.0479 18.3166 70.0479 18.0029C70.0479 17.3881 69.6867 17.0813 68.9642 17.0813H68.3288Z" fill="#28B058"/>
<path d="M73.8395 19.483V21.2422H73.2977V16.5884H74.5685C75.0629 16.5884 75.4462 16.7091 75.7193 16.9517C75.9914 17.1943 76.1268 17.5355 76.1268 17.9776C76.1268 18.4185 75.9759 18.7796 75.6731 19.0609C75.3713 19.3423 74.9628 19.483 74.4496 19.483H73.8395ZM73.8395 17.0813V18.9901H74.4077C74.781 18.9901 75.0674 18.9037 75.2633 18.7319C75.4604 18.5602 75.5585 18.3166 75.5585 18.0029C75.5585 17.3881 75.1973 17.0813 74.4748 17.0813H73.8395Z" fill="#28B058"/>
<path d="M80.0624 21.2422H79.4623L78.9722 19.9372H77.0097L76.5484 21.2422H75.946L77.7202 16.5884H78.2818L80.0624 21.2422ZM78.7938 19.4476L78.0681 17.4646C78.0449 17.3993 78.0207 17.2951 77.9977 17.1533H77.9844C77.9635 17.2851 77.9382 17.3881 77.9106 17.4646L77.1904 19.4476H78.7938Z" fill="#28B058"/>
<path d="M80.4457 21.0473V20.4569C80.8069 20.7227 81.2165 20.8556 81.6746 20.8556C82.0083 20.8556 82.2737 20.7747 82.4708 20.613C82.6669 20.4502 82.766 20.2319 82.766 19.9573C82.766 19.3602 82.364 19.061 81.5623 19.061H81.081V18.6101H81.5238C81.8651 18.6101 82.1305 18.5359 82.3188 18.3864C82.5071 18.2368 82.6007 18.0263 82.6007 17.7539C82.6007 17.5201 82.5225 17.3328 82.3673 17.1921C82.2109 17.0515 81.9962 16.9805 81.723 16.9805C81.3365 16.9805 80.9599 17.1036 80.5944 17.3472V16.7956C80.9347 16.605 81.3255 16.5098 81.7683 16.5098C82.2076 16.5098 82.5523 16.615 82.8045 16.8254C83.0556 17.0349 83.1822 17.3107 83.1822 17.653C83.1822 18.2568 82.8893 18.6367 82.3045 18.7952V18.8084C82.6228 18.8449 82.8749 18.9646 83.0622 19.1684C83.2494 19.3723 83.343 19.6238 83.343 19.924C83.343 20.3505 83.1922 20.6895 82.8915 20.9421C82.5908 21.1946 82.179 21.3198 81.6559 21.3198C81.1328 21.3198 80.7298 21.2289 80.4457 21.0473Z" fill="#28B058"/>
<path d="M84.311 21.2422V16.5884H85.627C86.0267 16.5884 86.3449 16.6869 86.5785 16.883C86.813 17.0801 86.9307 17.3372 86.9307 17.6529C86.9307 17.9165 86.8593 18.1458 86.7172 18.3409C86.5752 18.5358 86.3802 18.6743 86.1303 18.7563V18.7696C86.4419 18.8061 86.6919 18.9247 86.879 19.1241C87.0663 19.3246 87.1598 19.5849 87.1598 19.905C87.1598 20.3027 87.0178 20.6252 86.7336 20.8722C86.4495 21.1193 86.0916 21.2422 85.6588 21.2422H84.311ZM84.8528 17.0813V18.5845H85.4077C85.7041 18.5845 85.9375 18.5125 86.1082 18.3686C86.2778 18.2245 86.3625 18.0218 86.3625 17.7593C86.3625 17.3072 86.0674 17.0813 85.475 17.0813H84.8528ZM84.8528 19.0743V20.7493H85.5884C85.9067 20.7493 86.1533 20.6727 86.3284 20.5222C86.5046 20.3704 86.5916 20.1621 86.5916 19.8984C86.5916 19.3489 86.2194 19.0743 85.475 19.0743H84.8528Z" fill="#28B058"/>
<path d="M91.8279 21.2422H91.2851V17.88C91.2851 17.5765 91.296 17.3638 91.3181 17.2409H91.2983C91.2576 17.3461 91.208 17.4435 91.1497 17.5322L88.7687 21.2422H88.0981V16.5884H88.6399V19.8663C88.6399 20.2163 88.6311 20.4446 88.6145 20.5509H88.6266C88.674 20.4556 88.7347 20.3516 88.8073 20.2397L91.1309 16.5884H91.8279V21.2422Z" fill="#28B058"/>
<path d="M95.7825 17.0813H94.4467V21.2422H93.9049V17.0813H92.5724V16.5884H95.7825V17.0813Z" fill="#28B058"/>
<path d="M100.239 21.2422H99.6963V17.88C99.6963 17.5765 99.7073 17.3638 99.7293 17.2409H99.7096C99.6688 17.3461 99.6192 17.4435 99.5609 17.5322L97.1799 21.2422H96.5094V16.5884H97.0511V19.8663C97.0511 20.2163 97.0423 20.4446 97.0258 20.5509H97.0379C97.0853 20.4556 97.1459 20.3516 97.2185 20.2397L99.5422 16.5884H100.239V21.2422Z" fill="#28B058"/>
<path d="M104.145 21.2422H103.603V19.2625H102.929C102.801 19.2625 102.687 19.298 102.589 19.3678C102.491 19.4386 102.387 19.596 102.274 19.8397L101.694 21.2422H101.049L101.751 19.6879C101.796 19.586 101.866 19.4786 101.959 19.3644C102.053 19.2515 102.162 19.1707 102.287 19.123V19.1096C101.979 19.0433 101.74 18.9014 101.57 18.6843C101.399 18.4683 101.313 18.2068 101.313 17.8989C101.313 17.5033 101.449 17.1855 101.725 16.9472C101.999 16.7079 102.358 16.5884 102.803 16.5884H104.145V21.2422ZM103.603 18.7696V17.0813H102.851C102.546 17.0813 102.31 17.1543 102.14 17.2984C101.971 17.4435 101.887 17.6484 101.887 17.9122C101.887 18.1758 101.974 18.3851 102.145 18.5392C102.317 18.6921 102.549 18.7696 102.839 18.7696H103.603Z" fill="#28B058"/>
<path d="M110.902 21.2422H110.36V17.88C110.36 17.5765 110.37 17.3638 110.393 17.2409H110.373C110.332 17.3461 110.282 17.4435 110.224 17.5322L107.843 21.2422H107.173V16.5884H107.714V19.8663C107.714 20.2163 107.706 20.4446 107.689 20.5509H107.701C107.748 20.4556 107.809 20.3516 107.882 20.2397L110.205 16.5884H110.902V21.2422Z" fill="#28B058"/>
<path d="M115.599 21.2422H115.057V19.1196H112.663V21.2422H112.122V16.5884H112.663V18.6301H115.057V16.5884H115.599V21.2422Z" fill="#28B058"/>
<path d="M118.884 20.632V21.2425H118.381V20.632H118.294C117.777 20.632 117.351 20.456 117.014 20.1014C116.677 19.7481 116.509 19.3127 116.509 18.7955C116.509 18.3024 116.677 17.887 117.012 17.5492C117.348 17.2112 117.777 17.0428 118.299 17.0428H118.381V16.459H118.884V17.0428H118.961C119.49 17.0428 119.921 17.209 120.253 17.5413C120.586 17.8725 120.752 18.2914 120.752 18.7955C120.752 19.3061 120.583 19.7403 120.246 20.0971C119.911 20.4538 119.484 20.632 118.968 20.632H118.884ZM118.884 17.5003V20.1525H118.968C119.336 20.1525 119.63 20.0294 119.852 19.7836C120.073 19.5377 120.184 19.2108 120.184 18.802C120.184 18.4121 120.073 18.0986 119.852 17.8593C119.63 17.62 119.334 17.5003 118.961 17.5003H118.884ZM118.381 20.1525V17.5003H118.299C117.934 17.5003 117.639 17.6211 117.414 17.8637C117.189 18.1063 117.077 18.4188 117.077 18.802C117.077 19.213 117.188 19.541 117.41 19.7858C117.631 20.0294 117.926 20.1525 118.294 20.1525H118.381Z" fill="#28B058"/>
<path d="M123.477 21.3198C122.821 21.3198 122.296 21.1027 121.902 20.6673C121.507 20.2331 121.309 19.667 121.309 18.9702C121.309 18.2213 121.511 17.6242 121.913 17.1789C122.314 16.7335 122.863 16.5098 123.556 16.5098C124.194 16.5098 124.709 16.7269 125.098 17.1589C125.489 17.5921 125.684 18.1581 125.684 18.8572C125.684 19.616 125.484 20.2164 125.084 20.6585C124.684 21.0994 124.149 21.3198 123.477 21.3198ZM123.516 17.0038C123.03 17.0038 122.636 17.1799 122.332 17.5323C122.029 17.8856 121.877 18.3487 121.877 18.9215C121.877 19.4952 122.025 19.9561 122.321 20.3061C122.616 20.6551 123.003 20.8302 123.477 20.8302C123.985 20.8302 124.385 20.664 124.678 20.3305C124.971 19.9971 125.116 19.5308 125.116 18.9315C125.116 18.3166 124.975 17.8424 124.691 17.5068C124.407 17.1711 124.015 17.0038 123.516 17.0038Z" fill="#28B058"/>
<path d="M127.136 19.483V21.2422H126.594V16.5884H127.865C128.359 16.5884 128.743 16.7091 129.016 16.9517C129.288 17.1943 129.423 17.5355 129.423 17.9776C129.423 18.4185 129.272 18.7796 128.969 19.0609C128.668 19.3423 128.259 19.483 127.746 19.483H127.136ZM127.136 17.0813V18.9901H127.704C128.077 18.9901 128.364 18.9037 128.56 18.7319C128.757 18.5602 128.855 18.3166 128.855 18.0029C128.855 17.3881 128.494 17.0813 127.771 17.0813H127.136Z" fill="#28B058"/>
<path d="M135.011 21.2422H134.472V18.1205C134.472 17.8734 134.486 17.572 134.517 17.2142H134.504C134.452 17.4248 134.406 17.5742 134.365 17.6651L132.785 21.2422H132.52L130.943 17.6918C130.898 17.5875 130.851 17.4291 130.804 17.2142H130.791C130.808 17.4003 130.816 17.7049 130.816 18.126V21.2422H130.294V16.5884H131.01L132.429 19.833C132.54 20.0823 132.61 20.2684 132.643 20.3914H132.662C132.754 20.1366 132.829 19.946 132.884 19.8208L134.333 16.5884H135.011V21.2422Z" fill="#28B058"/>
<path d="M139.809 21.2422H139.209L138.719 19.9372H136.756L136.295 21.2422H135.692L137.467 16.5884H138.028L139.809 21.2422ZM138.54 19.4476L137.814 17.4646C137.791 17.3993 137.767 17.2951 137.744 17.1533H137.731C137.71 17.2851 137.685 17.3881 137.657 17.4646L136.937 19.4476H138.54Z" fill="#28B058"/>
<path d="M144.587 22.4918H144.086V21.2422H140.489V16.5884H141.031V20.7493H143.425V16.5884H143.967V20.7493H144.587V22.4918Z" fill="#28B058"/>
<path d="M149.123 21.2422H148.58V17.88C148.58 17.5765 148.591 17.3638 148.613 17.2409H148.593C148.553 17.3461 148.503 17.4435 148.445 17.5322L146.064 21.2422H145.393V16.5884H145.935V19.8663C145.935 20.2163 145.926 20.4446 145.91 20.5509H145.922C145.969 20.4556 146.03 20.3516 146.102 20.2397L148.426 16.5884H149.123V21.2422Z" fill="#28B058"/>
<path d="M152.206 21.3198C151.55 21.3198 151.025 21.1027 150.631 20.6673C150.236 20.2331 150.038 19.667 150.038 18.9702C150.038 18.2213 150.24 17.6242 150.642 17.1789C151.043 16.7335 151.592 16.5098 152.285 16.5098C152.923 16.5098 153.438 16.7269 153.827 17.1589C154.218 17.5921 154.413 18.1581 154.413 18.8572C154.413 19.616 154.213 20.2164 153.813 20.6585C153.413 21.0994 152.878 21.3198 152.206 21.3198ZM152.245 17.0038C151.759 17.0038 151.365 17.1799 151.061 17.5323C150.758 17.8856 150.606 18.3487 150.606 18.9215C150.606 19.4952 150.754 19.9561 151.05 20.3061C151.345 20.6551 151.732 20.8302 152.206 20.8302C152.714 20.8302 153.114 20.664 153.407 20.3305C153.7 19.9971 153.845 19.5308 153.845 18.9315C153.845 18.3166 153.704 17.8424 153.42 17.5068C153.136 17.1711 152.744 17.0038 152.245 17.0038Z" fill="#28B058"/>
<path d="M158.801 21.2422H158.259V19.1196H155.865V21.2422H155.323V16.5884H155.865V18.6301H158.259V16.5884H158.801V21.2422Z" fill="#28B058"/>
<path d="M163.492 21.2422H162.95V19.1196H160.556V21.2422H160.014V16.5884H160.556V18.6301H162.95V16.5884H163.492V21.2422Z" fill="#28B058"/>
<path d="M168.664 21.2422H168.122V16.5884H168.664V21.2422ZM164.706 21.2422V16.5884H165.247V18.5614H166.125C166.585 18.5614 166.943 18.6732 167.199 18.897C167.455 19.1208 167.583 19.4398 167.583 19.853C167.583 20.2817 167.449 20.6196 167.18 20.8688C166.911 21.1181 166.545 21.2422 166.08 21.2422H164.706ZM165.247 19.0543V20.7493H166.008C166.329 20.7493 166.577 20.6727 166.751 20.5222C166.924 20.3704 167.013 20.1576 167.013 19.8852C167.013 19.3312 166.678 19.0543 166.008 19.0543H165.247Z" fill="#28B058"/>
<path d="M173.074 21.2422H172.413L171.348 19.4608C171.316 19.4066 171.28 19.3291 171.241 19.2304H171.228C171.207 19.2802 171.171 19.3567 171.119 19.4608L170.022 21.2422H169.357L170.906 18.9025L169.48 16.5884H170.145L171.089 18.2234C171.152 18.3321 171.207 18.4406 171.255 18.548H171.268C171.336 18.4051 171.397 18.2932 171.448 18.2112L172.432 16.5884H173.055L171.599 18.8959L173.074 21.2422Z" fill="#28B058"/>
<path d="M37.3017 25.0388H35.9658V29.1997H35.4241V25.0388H34.0916V24.5459H37.3017V25.0388Z" fill="#28B058"/>
<path d="M40.4798 29.1997H38.0286V24.5459H40.3774V25.0388H38.5703V26.5876H40.242V27.0772H38.5703V28.7068H40.4798V29.1997Z" fill="#28B058"/>
<path d="M44.5963 29.1997H43.9356L42.8706 27.4183C42.8388 27.3641 42.8023 27.2866 42.7638 27.1879H42.7506C42.7297 27.2377 42.6934 27.3143 42.6417 27.4183L41.5448 29.1997H40.8796L42.428 26.86L41.003 24.5459H41.667L42.6118 26.1809C42.6747 26.2896 42.7297 26.3981 42.7771 26.5055H42.7902C42.8585 26.3626 42.9192 26.2507 42.9709 26.1687L43.9543 24.5459H44.5776L43.1217 26.8534L44.5963 29.1997Z" fill="#28B058"/>
<path d="M48.7776 29.1997H48.2357V27.0772H45.8416V29.1997H45.2999V24.5459H45.8416V26.5876H48.2357V24.5459H48.7776V29.1997Z" fill="#28B058"/>
<path d="M51.8555 29.2773C51.1991 29.2773 50.6739 29.0602 50.2796 28.6248C49.8854 28.1906 49.6871 27.6245 49.6871 26.9277C49.6871 26.1788 49.8887 25.5817 50.2907 25.1364C50.6925 24.6911 51.241 24.4673 51.9337 24.4673C52.5724 24.4673 53.0866 24.6844 53.4764 25.1164C53.8675 25.5496 54.0624 26.1156 54.0624 26.8148C54.0624 27.5735 53.8618 28.1739 53.4622 28.616C53.0624 29.0569 52.5273 29.2773 51.8555 29.2773ZM51.8941 24.9614C51.4084 24.9614 51.0141 25.1375 50.7102 25.4898C50.4074 25.8431 50.2554 26.3062 50.2554 26.879C50.2554 27.4528 50.4029 27.9136 50.6991 28.2637C50.9943 28.6127 51.3809 28.7877 51.8555 28.7877C52.3632 28.7877 52.7628 28.6215 53.0557 28.288C53.3488 27.9547 53.4942 27.4883 53.4942 26.889C53.4942 26.2742 53.3531 25.7999 53.069 25.4643C52.7849 25.1286 52.3929 24.9614 51.8941 24.9614Z" fill="#28B058"/>
<path d="M58.1655 29.1997H57.6238V25.0388H56.3397C56.1921 26.2119 56.0743 27.0406 55.9884 27.5247C55.9025 28.0099 55.8155 28.3666 55.7275 28.5959C55.6393 28.8252 55.5193 28.9959 55.3685 29.1078C55.2186 29.2185 55.0381 29.2739 54.8266 29.2739C54.657 29.2739 54.5095 29.2517 54.385 29.2064V28.6935C54.4952 28.7566 54.6162 28.7877 54.7495 28.7877C54.8828 28.7877 55.0083 28.7078 55.1251 28.5472C55.243 28.3876 55.3618 27.9711 55.483 27.2976C55.6052 26.6253 55.7396 25.708 55.8883 24.5459H58.1655V29.1997Z" fill="#28B058"/>
<path d="M61.2502 29.2773C60.5938 29.2773 60.0687 29.0602 59.6743 28.6248C59.2802 28.1906 59.0819 27.6245 59.0819 26.9277C59.0819 26.1788 59.2835 25.5817 59.6854 25.1364C60.0873 24.6911 60.6358 24.4673 61.3285 24.4673C61.9672 24.4673 62.4814 24.6844 62.8712 25.1164C63.2622 25.5496 63.4572 26.1156 63.4572 26.8148C63.4572 27.5735 63.2566 28.1739 62.857 28.616C62.4571 29.0569 61.9221 29.2773 61.2502 29.2773ZM61.2888 24.9614C60.8032 24.9614 60.4088 25.1375 60.105 25.4898C59.8021 25.8431 59.6501 26.3062 59.6501 26.879C59.6501 27.4528 59.7977 27.9136 60.0939 28.2637C60.3891 28.6127 60.7757 28.7877 61.2502 28.7877C61.758 28.7877 62.1576 28.6215 62.4505 28.288C62.7436 27.9547 62.8889 27.4883 62.8889 26.889C62.8889 26.2742 62.7479 25.7999 62.4638 25.4643C62.1797 25.1286 61.7876 24.9614 61.2888 24.9614Z" fill="#28B058"/>
<path d="M66.7664 25.0522H64.9118V29.1997H64.3668V24.5459H66.7664V25.0522Z" fill="#28B058"/>
<path d="M71.2131 29.1997H70.6702V25.8375C70.6702 25.5341 70.6812 25.3213 70.7032 25.1984H70.6835C70.6427 25.3036 70.5931 25.401 70.5348 25.4897L68.1538 29.1997H67.4833V24.5459H68.025V27.8239C68.025 28.1739 68.0162 28.4021 67.9996 28.5084H68.0117C68.0591 28.4132 68.1198 28.3091 68.1924 28.1972L70.516 24.5459H71.2131V29.1997Z" fill="#28B058"/>
<path d="M76.1621 29.1995H75.6192V25.8374C75.6192 25.5339 75.6301 25.3211 75.6522 25.1982H75.6324C75.5917 25.3034 75.5421 25.4008 75.4838 25.4895L73.1028 29.1995H72.4323V24.5457H72.974V27.8237C72.974 28.1737 72.9652 28.402 72.9486 28.5082H72.9607C73.0081 28.413 73.0688 28.3089 73.1414 28.197L75.465 24.5457H76.1621V29.1995ZM75.4771 23.1299C75.4451 23.4345 75.323 23.6761 75.1115 23.8522C74.899 24.0283 74.6347 24.117 74.3165 24.117C73.9893 24.117 73.7229 24.0283 73.5168 23.8522C73.3121 23.6761 73.1997 23.4345 73.18 23.1299H73.703C73.7328 23.5364 73.9399 23.7403 74.3219 23.7403C74.4948 23.7403 74.6369 23.686 74.7481 23.5798C74.8603 23.4722 74.9286 23.3226 74.9551 23.1299H75.4771Z" fill="#28B058"/>
<path d="M82.9214 29.1997H82.3786V25.8375C82.3786 25.5341 82.3895 25.3213 82.4116 25.1984H82.3918C82.3511 25.3036 82.3015 25.401 82.2431 25.4897L79.8622 29.1997H79.1917V24.5459H79.7334V27.8239C79.7334 28.1739 79.7246 28.4021 79.708 28.5084H79.7201C79.7675 28.4132 79.8282 28.3091 79.9008 28.1972L82.2244 24.5459H82.9214V29.1997Z" fill="#28B058"/>
<path d="M89.6808 29.1997H89.138V25.8375C89.138 25.5341 89.1489 25.3213 89.171 25.1984H89.1512C89.1105 25.3036 89.0609 25.401 89.0025 25.4897L86.6216 29.1997H85.951V24.5459H86.4928V27.8239C86.4928 28.1739 86.484 28.4021 86.4674 28.5084H86.4795C86.5269 28.4132 86.5876 28.3091 86.6602 28.1972L88.9838 24.5459H89.6808V29.1997Z" fill="#28B058"/>
<path d="M94.3777 29.1997H93.8358V27.0772H91.4417V29.1997H90.9V24.5459H91.4417V26.5876H93.8358V24.5459H94.3777V29.1997Z" fill="#28B058"/>
<path d="M97.6626 28.5891V29.1995H97.1593V28.5891H97.0723C96.5558 28.5891 96.1296 28.413 95.7926 28.0585C95.4557 27.7051 95.2872 27.2698 95.2872 26.7525C95.2872 26.2594 95.4557 25.844 95.7905 25.5062C96.1263 25.1682 96.5558 24.9998 97.0778 24.9998H97.1593V24.416H97.6626V24.9998H97.7397C98.2683 24.9998 98.6999 25.166 99.0314 25.4984C99.364 25.8295 99.5302 26.2484 99.5302 26.7525C99.5302 27.2631 99.3618 27.6973 99.0248 28.0541C98.689 28.4108 98.2628 28.5891 97.7463 28.5891H97.6626ZM97.6626 25.4574V28.1095H97.7463C98.1141 28.1095 98.4082 27.9864 98.6306 27.7406C98.8519 27.4947 98.962 27.1679 98.962 26.759C98.962 26.3691 98.8519 26.0556 98.6306 25.8164C98.4082 25.5771 98.112 25.4574 97.7397 25.4574H97.6626ZM97.1593 28.1095V25.4574H97.0778C96.7123 25.4574 96.4171 25.5781 96.1925 25.8207C95.9678 26.0633 95.8555 26.3758 95.8555 26.759C95.8555 27.17 95.9667 27.498 96.188 27.7428C96.4094 27.9864 96.7045 28.1095 97.0723 28.1095H97.1593Z" fill="#28B058"/>
<path d="M102.256 29.2773C101.599 29.2773 101.074 29.0602 100.68 28.6248C100.286 28.1906 100.088 27.6245 100.088 26.9277C100.088 26.1788 100.289 25.5817 100.691 25.1364C101.093 24.6911 101.641 24.4673 102.334 24.4673C102.973 24.4673 103.487 24.6844 103.877 25.1164C104.268 25.5496 104.463 26.1156 104.463 26.8148C104.463 27.5735 104.262 28.1739 103.863 28.616C103.463 29.0569 102.928 29.2773 102.256 29.2773ZM102.294 24.9614C101.809 24.9614 101.414 25.1375 101.111 25.4898C100.808 25.8431 100.656 26.3062 100.656 26.879C100.656 27.4528 100.803 27.9136 101.1 28.2637C101.395 28.6127 101.781 28.7877 102.256 28.7877C102.764 28.7877 103.163 28.6215 103.456 28.288C103.749 27.9547 103.895 27.4883 103.895 26.889C103.895 26.2742 103.754 25.7999 103.469 25.4643C103.185 25.1286 102.793 24.9614 102.294 24.9614Z" fill="#28B058"/>
<path d="M105.914 27.4405V29.1997H105.372V24.5459H106.643C107.138 24.5459 107.521 24.6666 107.794 24.9092C108.066 25.1519 108.201 25.493 108.201 25.9351C108.201 26.376 108.051 26.7371 107.748 27.0185C107.446 27.2998 107.038 27.4405 106.524 27.4405H105.914ZM105.914 25.0388V26.9476H106.482C106.856 26.9476 107.142 26.8612 107.338 26.6895C107.535 26.5177 107.633 26.2741 107.633 25.9604C107.633 25.3456 107.272 25.0388 106.55 25.0388H105.914Z" fill="#28B058"/>
<path d="M113.789 29.1997H113.251V26.078C113.251 25.8309 113.265 25.5296 113.296 25.1717H113.283C113.231 25.3823 113.184 25.5317 113.144 25.6226L111.563 29.1997H111.298L109.721 25.6493C109.676 25.5451 109.63 25.3867 109.582 25.1717H109.569C109.587 25.3578 109.594 25.6625 109.594 26.0835V29.1997H109.073V24.5459H109.788L111.208 27.7905C111.318 28.0398 111.388 28.2259 111.421 28.3489H111.44C111.533 28.0942 111.608 27.9036 111.663 27.7783L113.112 24.5459H113.789V29.1997Z" fill="#28B058"/>
<path d="M118.587 29.1997H117.987L117.497 27.8947H115.535L115.073 29.1997H114.471L116.245 24.5459H116.807L118.587 29.1997ZM117.319 27.4051L116.593 25.4222C116.57 25.3568 116.546 25.2526 116.522 25.1108H116.509C116.488 25.2426 116.463 25.3456 116.435 25.4222L115.715 27.4051H117.319Z" fill="#28B058"/>
<path d="M123.365 30.4493H122.864V29.1997H119.268V24.5459H119.809V28.7068H122.203V24.5459H122.745V28.7068H123.365V30.4493Z" fill="#28B058"/>
<path d="M127.901 29.1997H127.359V25.8375C127.359 25.5341 127.369 25.3213 127.392 25.1984H127.372C127.331 25.3036 127.281 25.401 127.223 25.4897L124.842 29.1997H124.172V24.5459H124.713V27.8239C124.713 28.1739 124.705 28.4021 124.688 28.5084H124.7C124.747 28.4132 124.808 28.3091 124.881 28.1972L127.204 24.5459H127.901V29.1997Z" fill="#28B058"/>
<path d="M130.985 29.2773C130.328 29.2773 129.803 29.0602 129.409 28.6248C129.015 28.1906 128.817 27.6245 128.817 26.9277C128.817 26.1788 129.018 25.5817 129.42 25.1364C129.822 24.6911 130.37 24.4673 131.063 24.4673C131.702 24.4673 132.216 24.6844 132.606 25.1164C132.997 25.5496 133.192 26.1156 133.192 26.8148C133.192 27.5735 132.991 28.1739 132.592 28.616C132.192 29.0569 131.657 29.2773 130.985 29.2773ZM131.023 24.9614C130.538 24.9614 130.143 25.1375 129.84 25.4898C129.537 25.8431 129.385 26.3062 129.385 26.879C129.385 27.4528 129.532 27.9136 129.829 28.2637C130.124 28.6127 130.51 28.7877 130.985 28.7877C131.493 28.7877 131.892 28.6215 132.185 28.288C132.478 27.9547 132.624 27.4883 132.624 26.889C132.624 26.2742 132.483 25.7999 132.198 25.4643C131.914 25.1286 131.522 24.9614 131.023 24.9614Z" fill="#28B058"/>
<path d="M137.579 29.1997H137.037V27.0772H134.643V29.1997H134.102V24.5459H134.643V26.5876H137.037V24.5459H137.579V29.1997Z" fill="#28B058"/>
<path d="M142.27 29.1997H141.729V27.0772H139.334V29.1997H138.793V24.5459H139.334V26.5876H141.729V24.5459H142.27V29.1997Z" fill="#28B058"/>
<path d="M147.443 29.1997H146.9V24.5459H147.443V29.1997ZM143.484 29.1997V24.5459H144.026V26.5189H144.903C145.364 26.5189 145.722 26.6308 145.977 26.8545C146.234 27.0783 146.361 27.3973 146.361 27.8105C146.361 28.2392 146.227 28.5771 145.958 28.8264C145.69 29.0756 145.323 29.1997 144.858 29.1997H143.484ZM144.026 27.0118V28.7068H144.787C145.107 28.7068 145.355 28.6303 145.529 28.4797C145.703 28.3279 145.791 28.1152 145.791 27.8427C145.791 27.2888 145.456 27.0118 144.787 27.0118H144.026Z" fill="#28B058"/>
<path d="M151.852 29.1997H151.191L150.126 27.4183C150.095 27.3641 150.058 27.2866 150.02 27.1879H150.006C149.986 27.2377 149.949 27.3143 149.898 27.4183L148.801 29.1997H148.135L149.684 26.86L148.259 24.5459H148.923L149.868 26.1809C149.931 26.2896 149.986 26.3981 150.033 26.5055H150.046C150.114 26.3626 150.175 26.2507 150.227 26.1687L151.21 24.5459H151.833L150.378 26.8534L151.852 29.1997Z" fill="#28B058"/>
<path d="M154.908 27.4405V29.1997H154.366V24.5459H155.637C156.131 24.5459 156.515 24.6666 156.788 24.9092C157.06 25.1519 157.195 25.493 157.195 25.9351C157.195 26.376 157.044 26.7371 156.742 27.0185C156.44 27.2998 156.031 27.4405 155.518 27.4405H154.908ZM154.908 25.0388V26.9476H155.476C155.849 26.9476 156.136 26.8612 156.332 26.6895C156.529 26.5177 156.627 26.2741 156.627 25.9604C156.627 25.3456 156.266 25.0388 155.543 25.0388H154.908Z" fill="#28B058"/>
<path d="M160.518 29.1997H158.066V24.5459H160.415V25.0388H158.608V26.5876H160.28V27.0772H158.608V28.7068H160.518V29.1997Z" fill="#28B058"/>
<path d="M164.557 29.0048C164.216 29.1864 163.789 29.2773 163.28 29.2773C162.621 29.2773 162.095 29.0646 161.699 28.6382C161.303 28.2116 161.105 27.6522 161.105 26.9598C161.105 26.2165 161.328 25.615 161.773 25.1563C162.218 24.6966 162.783 24.4673 163.467 24.4673C163.905 24.4673 164.269 24.5315 164.557 24.6589V25.2405C164.226 25.0544 163.86 24.9614 163.46 24.9614C162.929 24.9614 162.499 25.1398 162.168 25.4965C161.838 25.8531 161.673 26.3305 161.673 26.9277C161.673 27.4949 161.827 27.9468 162.135 28.2825C162.445 28.6193 162.849 28.7877 163.351 28.7877C163.815 28.7877 164.218 28.6835 164.557 28.4764V29.0048Z" fill="#28B058"/>
<path d="M168.681 24.5459L167.252 27.7938C166.997 28.37 166.752 28.761 166.516 28.9693C166.279 29.1764 166.021 29.2806 165.742 29.2806C165.512 29.2806 165.319 29.2474 165.164 29.1797V28.6281C165.349 28.7388 165.527 28.7942 165.699 28.7942C165.874 28.7942 166.034 28.7266 166.18 28.5916C166.327 28.4563 166.484 28.2171 166.655 27.8759L165.087 24.5459H165.702L166.812 27.0318C166.832 27.0727 166.872 27.1735 166.932 27.3331H166.938C166.945 27.3143 166.989 27.209 167.071 27.0185L168.1 24.5459H168.681Z" fill="#28B058"/>
<path d="M169.79 27.4405V29.1997H169.248V24.5459H170.519C171.013 24.5459 171.397 24.6666 171.67 24.9092C171.942 25.1519 172.077 25.493 172.077 25.9351C172.077 26.376 171.926 26.7371 171.624 27.0185C171.322 27.2998 170.913 27.4405 170.4 27.4405H169.79ZM169.79 25.0388V26.9476H170.358C170.732 26.9476 171.018 26.8612 171.214 26.6895C171.411 26.5177 171.509 26.2741 171.509 25.9604C171.509 25.3456 171.148 25.0388 170.425 25.0388H169.79Z" fill="#28B058"/>
<path d="M176.065 29.0048C175.723 29.1864 175.297 29.2773 174.787 29.2773C174.129 29.2773 173.602 29.0646 173.207 28.6382C172.811 28.2116 172.612 27.6522 172.612 26.9598C172.612 26.2165 172.836 25.615 173.281 25.1563C173.726 24.6966 174.291 24.4673 174.975 24.4673C175.413 24.4673 175.776 24.5315 176.065 24.6589V25.2405C175.733 25.0544 175.368 24.9614 174.968 24.9614C174.437 24.9614 174.007 25.1398 173.676 25.4965C173.346 25.8531 173.181 26.3305 173.181 26.9277C173.181 27.4949 173.335 27.9468 173.643 28.2825C173.953 28.6193 174.357 28.7877 174.859 28.7877C175.323 28.7877 175.726 28.6835 176.065 28.4764V29.0048Z" fill="#28B058"/>
<path d="M178.695 29.2773C178.038 29.2773 177.513 29.0602 177.119 28.6248C176.724 28.1906 176.526 27.6245 176.526 26.9277C176.526 26.1788 176.728 25.5817 177.13 25.1364C177.532 24.6911 178.08 24.4673 178.773 24.4673C179.411 24.4673 179.926 24.6844 180.316 25.1164C180.707 25.5496 180.902 26.1156 180.902 26.8148C180.902 27.5735 180.701 28.1739 180.301 28.616C179.901 29.0569 179.366 29.2773 178.695 29.2773ZM178.733 24.9614C178.248 24.9614 177.853 25.1375 177.549 25.4898C177.246 25.8431 177.094 26.3062 177.094 26.879C177.094 27.4528 177.242 27.9136 177.538 28.2637C177.833 28.6127 178.22 28.7877 178.695 28.7877C179.202 28.7877 179.602 28.6215 179.895 28.288C180.188 27.9547 180.333 27.4883 180.333 26.889C180.333 26.2742 180.192 25.7999 179.908 25.4643C179.624 25.1286 179.232 24.9614 178.733 24.9614Z" fill="#28B058"/>
<path d="M181.811 29.1997V24.5459H183.127C183.527 24.5459 183.845 24.6445 184.079 24.8405C184.313 25.0377 184.431 25.2948 184.431 25.6104C184.431 25.8741 184.36 26.1034 184.217 26.2984C184.075 26.4934 183.88 26.6318 183.631 26.7138V26.7271C183.942 26.7637 184.192 26.8822 184.379 27.0817C184.567 27.2821 184.66 27.5424 184.66 27.8625C184.66 28.2602 184.518 28.5827 184.234 28.8297C183.95 29.0768 183.592 29.1997 183.159 29.1997H181.811ZM182.353 25.0388V26.5421H182.908C183.204 26.5421 183.438 26.47 183.608 26.3261C183.778 26.182 183.863 25.9793 183.863 25.7168C183.863 25.2648 183.568 25.0388 182.975 25.0388H182.353ZM182.353 27.0318V28.7068H183.089C183.407 28.7068 183.654 28.6303 183.829 28.4797C184.005 28.3279 184.092 28.1197 184.092 27.8559C184.092 27.3064 183.72 27.0318 182.975 27.0318H182.353Z" fill="#28B058"/>
<path d="M188.05 27.4538L187.079 28.5505H186.546L187.521 27.4538L186.546 26.3438H187.079L188.05 27.4538ZM186.795 27.4538L185.831 28.5505H185.282L186.275 27.4538L185.282 26.3438H185.831L186.795 27.4538Z" fill="#28B058"/>
</svg>
