<svg xmlns="http://www.w3.org/2000/svg" width="41px" height="42px" viewBox="0 0 41 42" fill="none">
<path d="M40.25 0.885787C17.5097 -1.59618 3.06145 30.6398 0.403591 40.8808C0.27259 41.3855 0.863517 41.6171 1.16952 41.1949C5.32219 35.4646 9.00899 31.4118 10.6599 29.6775C11.2388 29.0694 12.0597 28.7716 12.8993 28.766C21.8324 28.7074 25.5052 23.2071 25.5052 23.2071C24.2739 23.6186 19.5651 22.7967 19.5651 22.7967C16.289 22.3862 20.3666 21.366 20.972 21.2368C31.1879 19.0359 31.8547 14.6072 31.8547 14.6072C29.3974 15.427 23.8677 13.9931 23.8677 13.9931C33.9016 13.1765 35.7448 7.2353 35.7448 7.2353C32.6735 8.2598 28.8836 7.79764 28.8836 7.79764C37.0246 6.10954 40.25 0.885787 40.25 0.885787Z" fill="#a62929"/>
</svg>