<svg xmlns="http://www.w3.org/2000/svg" width="42" height="40" viewBox="0 0 42 40" fill="none">
<path d="M41.1587 19.7153L37.0781 18.355V16.7807C37.0781 7.91526 29.8655 0.702637 21 0.702637C12.1345 0.702637 4.92189 7.91518 4.92189 16.7807V18.3549L0.841316 19.7152C0.338872 19.8828 0 20.353 0 20.8826V34.008C0 34.5376 0.338872 35.0078 0.841316 35.1754L4.92189 36.5357V38.11C4.92189 38.7895 5.47282 39.3404 6.15237 39.3404H8.61307C9.29262 39.3404 9.84354 38.7895 9.84354 38.11V16.7807C9.84354 16.1011 9.29262 15.5502 8.61307 15.5502H7.43903C8.06305 8.61614 13.9063 3.1635 21 3.1635C28.0937 3.1635 33.937 8.61614 34.5611 15.5502H33.3869C32.7074 15.5502 32.1565 16.1011 32.1565 16.7807V38.11C32.1565 38.7895 32.7074 39.3404 33.3869 39.3404H35.8476C36.5272 39.3404 37.0781 38.7895 37.0781 38.11V36.5357L41.1587 35.1754C41.6611 35.0079 42 34.5377 42 34.0081V20.8826C42 20.353 41.6611 19.8828 41.1587 19.7153Z" fill="#a62929"/>
<path d="M22.2324 34.0057C22.2324 34.0064 22.2325 34.0071 22.2325 34.0078V36.4688H28.4654C29.1449 36.4688 29.6959 35.9178 29.6959 35.2383V32.7773H23.4628C22.785 32.7773 22.2336 33.3282 22.2324 34.0057Z" fill="#a62929"/>
<path d="M18.5399 32.7773H12.3047V35.2383C12.3047 35.9178 12.8556 36.4688 13.5352 36.4688H19.7702V34.0078C19.7702 34.0072 19.7703 34.0064 19.7703 34.0057C19.769 33.3282 19.2176 32.7773 18.5399 32.7773Z" fill="#a62929"/>
<path d="M19.7702 30.5284V20.1851C19.1166 19.5993 18.2541 19.2422 17.3093 19.2422H13.5352C12.8556 19.2422 12.3047 19.7931 12.3047 20.4727V30.3165H18.5399C18.9712 30.3165 19.3851 30.3917 19.7702 30.5284Z" fill="#a62929"/>
<path d="M28.4634 19.2422H24.6913C23.785 19.2422 22.8797 19.5714 22.2305 20.1152V30.5284C22.6154 30.3917 23.0294 30.3165 23.4608 30.3165H29.6938V20.4727C29.6938 19.7931 29.1429 19.2422 28.4634 19.2422Z" fill="#a62929"/>
</svg>