<?xml version="1.0" encoding="UTF-8"?>
<svg version="1.1" xmlns="http://www.w3.org/2000/svg" width="263" height="263">
<path d="M0 0 C1.23223142 -0.00668677 1.23223142 -0.00668677 2.4893564 -0.01350862 C3.39158013 -0.01332426 4.29380385 -0.01313989 5.22336769 -0.01294994 C6.18203794 -0.01662663 7.14070819 -0.02030332 8.12842906 -0.02409142 C11.35503709 -0.03514364 14.58161293 -0.03897468 17.80823708 -0.04278088 C20.11580953 -0.04904424 22.42338098 -0.05569092 24.73095131 -0.0626936 C31.00983125 -0.08011218 37.28870357 -0.09065717 43.56760168 -0.09889913 C47.48755304 -0.10404622 51.40750202 -0.11012201 55.32745171 -0.11641026 C66.17918509 -0.1332789 77.03091555 -0.14791499 87.88265991 -0.155159 C90.69818434 -0.1570689 93.51370877 -0.15898923 96.32923317 -0.16094494 C97.02901958 -0.16142868 97.728806 -0.16191242 98.44979806 -0.16241082 C109.79180062 -0.17071532 121.13369786 -0.19606051 132.47565441 -0.22852562 C144.11829533 -0.26158002 155.76087724 -0.27927328 167.40356505 -0.28280324 C173.94136187 -0.2851583 180.47899213 -0.29417842 187.01674461 -0.31926441 C193.16449248 -0.34247307 199.31196325 -0.34680735 205.4597435 -0.33650303 C207.71846053 -0.33600584 209.97719088 -0.34237973 212.23586655 -0.35605907 C215.31496238 -0.37366678 218.3930517 -0.36672642 221.47214699 -0.35352612 C222.36990927 -0.36449536 223.26767155 -0.37546461 224.19263875 -0.38676625 C228.32288495 -0.34389573 230.43308825 -0.20625085 234.00615311 2.03970528 C237.4269821 5.67936011 237.06542315 8.23738388 236.97474098 13.13422108 C234.99474098 10.65922108 234.99474098 10.65922108 232.97474098 8.13422108 C227.40078128 8.37610989 224.71790841 11.89942199 221.09974098 15.69672108 C220.47188698 16.34004383 219.84403297 16.98336658 219.19715309 17.64618397 C215.66849286 21.28512919 212.28033325 25.00765018 209.00989723 28.88031483 C205.36454948 32.91748499 201.44975047 36.69762508 197.566782 40.50507069 C194.50979654 43.5206217 191.56099575 46.56600549 188.77338314 49.83365154 C184.86248217 54.32650877 180.7038029 58.52969341 176.47771645 62.72458363 C175.64826903 63.55206321 174.81882161 64.37954279 173.96423942 65.23209751 C171.68260878 67.5073846 169.39874224 69.78039869 167.1139158 72.05247569 C164.64240453 74.51136399 162.17390241 76.97326977 159.70510292 79.43488026 C155.43351268 83.69339173 151.16030137 87.95027071 146.88618469 92.20624638 C140.13045556 98.93368963 133.38056458 105.66697415 126.63167763 112.4012804 C124.31968919 114.70814557 122.00767537 117.0149853 119.6956625 119.32182598 C119.11802931 119.89817314 118.54039611 120.4745203 117.94525888 121.06833253 C111.38190849 127.61697324 104.81766952 134.16472279 98.25281715 140.7118578 C97.35338558 141.60886726 97.35338558 141.60886726 96.43578366 142.52399813 C86.703242 152.22996337 76.96512104 161.93031502 67.2254056 171.62908079 C57.21724251 181.59552335 47.2167312 191.5695995 37.22288257 201.55039585 C31.06196864 207.70271354 24.89490838 213.84873761 18.71982042 219.98682927 C14.49272718 224.18966344 10.27293899 228.39973984 6.05885353 232.61561622 C3.62721429 235.04783365 1.19241095 237.47664945 -1.25122261 239.89682102 C-3.89783437 242.52136768 -6.53190327 245.15789104 -9.16315269 247.79782581 C-9.93852373 248.56086336 -10.71389476 249.32390091 -11.51276189 250.11006081 C-15.25447454 253.89086315 -17.9194478 256.74456367 -19.02525902 262.13422108 C-18.03525902 262.46422108 -17.04525902 262.79422108 -16.02525902 263.13422108 C-22.07994652 263.32953358 -22.07994652 263.32953358 -24.02525902 263.13422108 C-26.72359974 260.43588035 -26.27553016 258.3341514 -26.30673212 254.66730499 C-26.30431703 253.75001523 -26.30190195 252.83272547 -26.29941368 251.88763905 C-26.30465036 250.91701684 -26.30988704 249.94639463 -26.3152824 248.94635963 C-26.33036092 245.67300168 -26.33098929 242.39979896 -26.3316555 239.12640858 C-26.339272 236.78768618 -26.3476986 234.4489663 -26.35687828 232.11024952 C-26.37888733 225.74006018 -26.3876314 219.36991886 -26.39270473 212.99969578 C-26.39634239 209.02057541 -26.40257952 205.04146773 -26.40970612 201.06235218 C-26.4292807 190.04253417 -26.44567829 179.02272519 -26.44858265 168.00288868 C-26.44877022 167.29721545 -26.44895779 166.59154223 -26.44915104 165.86448497 C-26.44951729 164.43391101 -26.44988099 163.00333705 -26.45024215 161.57276309 C-26.45042497 160.86262918 -26.45060778 160.15249528 -26.45079613 159.42084217 C-26.45097668 158.70983935 -26.45115723 157.99883652 -26.45134325 157.26628816 C-26.45488074 145.75943639 -26.48187252 134.25277226 -26.51929402 122.74598551 C-26.55741856 110.92819418 -26.57674046 99.11049581 -26.57704216 87.29264164 C-26.57762602 80.6590837 -26.58658608 74.0257228 -26.61503983 67.39221668 C-26.6412239 61.14755917 -26.64342319 54.90334349 -26.62738419 48.65865612 C-26.62556969 46.36978854 -26.63226039 44.08089556 -26.6482029 41.79208279 C-26.66868536 38.65975896 -26.65809753 35.52897756 -26.63998985 32.39667225 C-26.65318982 31.49722826 -26.66638979 30.59778427 -26.67998976 29.6710844 C-26.5754101 21.71488039 -23.42600745 16.04655185 -19.33775902 9.38422108 C-14.17870781 4.36460368 -7.33840717 0.01848563 0 0 Z " fill="#AE0B0C" transform="translate(26.025259017944336,-0.13422107696533203)"/>
<path d="M0 0 C0.66 0.33 1.32 0.66 2 1 C-1.3 4.3 -4.6 7.6 -8 11 C-8 7.0234755 -6.61988497 5.9109833 -4 3 C-1.75 1.1875 -1.75 1.1875 0 0 Z " fill="#AC1E0C" transform="translate(13,4)"/>
</svg>
