<svg id="Layer_1" data-name="Layer 1" xmlns="http://www.w3.org/2000/svg" viewBox="0 0 39.76 37.5"><defs><style>.cls-1{fill:#cd1b17;}</style></defs><path class="cls-1" d="M17.8,18.23h5.33c2,0,3.77.24,5.25,1.85l.21.23.15.17c1.22,1.4,1.41,3.32,1.41,5.17v2.11c0,.69,0,1.38,0,2.07v4.23c0,.37,0,.73,0,1.1v1.42c0,1.48,0,1.48-.44,2a2.12,2.12,0,0,1-1.35.33H15.71c-.42,0-.85,0-1.28,0h-1.3a1.69,1.69,0,0,1-1.31-.49,2.49,2.49,0,0,1-.31-1.31V25.52a7.59,7.59,0,0,1,1.68-5.33l.2-.22.16-.18A5.6,5.6,0,0,1,17.8,18.23Z" transform="translate(-0.96 -1.41)"/><path class="cls-1" d="M25.85,3.73a8.57,8.57,0,0,1,1.91,5.9,7.53,7.53,0,0,1-1.65,4.49l-.12.16a6.45,6.45,0,0,1-9.32,1l-.33-.3-.14-.12A7.69,7.69,0,0,1,14,10.35a8.72,8.72,0,0,1,1.47-6.08c.17-.22.35-.43.53-.64l.18-.2C18.92.47,23.18.94,25.85,3.73Z" transform="translate(-0.96 -1.41)"/><path class="cls-1" d="M31.84,21.6l1.59,0H34a6.5,6.5,0,0,1,3.62.68l.16.09a6.31,6.31,0,0,1,2.7,3.56l.06.19a10.43,10.43,0,0,1,.2,2.85c0,.19,0,.39,0,.58,0,.41,0,.81,0,1.22s0,1,0,1.56v1.78a5.14,5.14,0,0,1-1,3.67l-.19.19-.17.17a4.81,4.81,0,0,1-3.23.79h-4l0-.3a8.54,8.54,0,0,0,.05-1V36.38c0-.38,0-.76,0-1.15V29.67c0-.67,0-1.33,0-2V24.93A12.22,12.22,0,0,0,32,22.37l-.09-.46Z" transform="translate(-0.96 -1.41)"/><path class="cls-1" d="M8,21.58h.54l1.32,0-.07.3-.08.39,0,.2-.05.19,0,.18a7.58,7.58,0,0,0-.13,1.42v13.6c0,.34.05.67.09,1H5.39a4.74,4.74,0,0,1-2.57-.48l-.27-.15A3.87,3.87,0,0,1,1,36,2.56,2.56,0,0,1,1,35.42V34.7c0-.28,0-.56,0-.84V32.05c0-.52,0-1,0-1.57V28.7a7.42,7.42,0,0,1,1.69-5.34C4.18,21.75,6,21.54,8,21.58Z" transform="translate(-0.96 -1.41)"/><path class="cls-1" d="M36,9.56a6.29,6.29,0,0,1,2.11,3.78,6.7,6.7,0,0,1-1.15,4.73,5.12,5.12,0,0,1-3.48,2,5,5,0,0,1-3.87-1.31,6.38,6.38,0,0,1-1.87-4.14,6.52,6.52,0,0,1,1.51-4.43A5,5,0,0,1,36,9.56Z" transform="translate(-0.96 -1.41)"/><path class="cls-1" d="M8.48,8.52a5.05,5.05,0,0,1,3.67,1.39A6.29,6.29,0,0,1,14,14a6.43,6.43,0,0,1-1.58,4.51,5.11,5.11,0,0,1-3.95,1.6A5,5,0,0,1,5,18.33,6.39,6.39,0,0,1,3.53,14a6.25,6.25,0,0,1,1.9-4.18A4.92,4.92,0,0,1,8.48,8.52Z" transform="translate(-0.96 -1.41)"/></svg>